<svg xmlns="http://www.w3.org/2000/svg" viewBox="0 0 24 24" aria-hidden="true">
  <path fill="#fff" d="M12 2.8A9.1 9.1 0 0 0 4.1 16.4L3 21l4.7-1.1A9.1 9.1 0 1 0 12 2.8Zm0 1.8a7.3 7.3 0 0 1 6.2 11.2 7.3 7.3 0 0 1-9.9 2.4l-.3-.2-2.4.6.6-2.4-.2-.3A7.3 7.3 0 0 1 12 4.6Zm-3.1 3.5c-.2 0-.5.1-.7.4-.2.3-.8.8-.8 1.9s.8 2.2.9 2.3c.1.2 1.6 2.6 4 3.6 2 .9 2.4.7 2.9.7.4 0 1.4-.6 1.6-1.1.2-.6.2-1 .1-1.1l-.6-.3-1.6-.8c-.2-.1-.5-.1-.7.2l-.6.8c-.2.2-.3.2-.6.1-.3-.1-1.1-.4-2-1.3-.8-.7-1.3-1.6-1.4-1.9-.2-.3 0-.4.1-.6l.4-.5c.1-.2.2-.3.3-.5.1-.2 0-.4 0-.5L9.5 8.5c-.2-.4-.3-.4-.6-.4Z"/>
</svg>
